<mxfile host="Electron" agent="Mozilla/5.0 (Windows NT 10.0; Win64; x64) AppleWebKit/537.36 (KHTML, like Gecko) draw.io/24.7.8 Chrome/128.0.6613.36 Electron/32.0.1 Safari/537.36" version="24.7.8">
  <diagram name="Pagina-1" id="HqDfRZ2mkztdcof1Q7sX">
    <mxGraphModel dx="1932" dy="662" grid="1" gridSize="10" guides="1" tooltips="1" connect="1" arrows="1" fold="1" page="1" pageScale="1" pageWidth="827" pageHeight="1169" math="0" shadow="0">
      <root>
        <mxCell id="0" />
        <mxCell id="1" parent="0" />
        <mxCell id="0jMOX2zm2aL8xRkPfPqk-1" value="&lt;b&gt;Bottiglia&lt;/b&gt;" style="rounded=0;whiteSpace=wrap;html=1;" parent="1" vertex="1">
          <mxGeometry x="100" y="160" width="260" height="20" as="geometry" />
        </mxCell>
        <mxCell id="0jMOX2zm2aL8xRkPfPqk-2" value="-marca: string?&lt;div&gt;-materiale: string?&lt;/div&gt;&lt;div&gt;-altezza: float=0&lt;/div&gt;&lt;div&gt;-diametro: float=0&lt;/div&gt;" style="rounded=0;whiteSpace=wrap;html=1;" parent="1" vertex="1">
          <mxGeometry x="100" y="180" width="260" height="80" as="geometry" />
        </mxCell>
        <mxCell id="0jMOX2zm2aL8xRkPfPqk-3" value="+Bottiglia&lt;div&gt;+ setMarca(string) : void&lt;/div&gt;&lt;div&gt;+ getMarca() : string&lt;/div&gt;&lt;div&gt;-CalcolaVolume() : float&lt;/div&gt;&lt;div&gt;+ DettaglioGeometria() : void&lt;/div&gt;" style="rounded=0;whiteSpace=wrap;html=1;" parent="1" vertex="1">
          <mxGeometry x="100" y="260" width="260" height="100" as="geometry" />
        </mxCell>
        <mxCell id="0jMOX2zm2aL8xRkPfPqk-4" value="Inserisco i vari metodi, tra cui&amp;nbsp;&lt;div style=&quot;font-size: 16px;&quot;&gt;- il costruttore&lt;/div&gt;&lt;div style=&quot;font-size: 16px;&quot;&gt;-metodi get e set con rispettivo tipo di ritorno&lt;/div&gt;" style="text;html=1;align=center;verticalAlign=middle;whiteSpace=wrap;rounded=0;fontSize=16;" parent="1" vertex="1">
          <mxGeometry x="420" y="295" width="350" height="30" as="geometry" />
        </mxCell>
        <mxCell id="0jMOX2zm2aL8xRkPfPqk-5" value="&lt;font style=&quot;font-size: 72px;&quot;&gt;&lt;b&gt;&lt;i&gt;UML&lt;/i&gt;&lt;/b&gt;&lt;/font&gt;" style="text;html=1;align=center;verticalAlign=middle;resizable=0;points=[];autosize=1;strokeColor=none;fillColor=none;" parent="1" vertex="1">
          <mxGeometry x="324" y="13" width="180" height="100" as="geometry" />
        </mxCell>
        <mxCell id="0jMOX2zm2aL8xRkPfPqk-6" value="Inserisco tutti gli attributi della classe&lt;div style=&quot;font-size: 16px;&quot;&gt;&lt;br style=&quot;font-size: 16px;&quot;&gt;&lt;/div&gt;&lt;div style=&quot;font-size: 16px;&quot;&gt;Con il - definisco questi attributi PRIVATI&lt;/div&gt;&lt;div style=&quot;font-size: 16px;&quot;&gt;Con il + definisco quelli PUBBLICI&lt;/div&gt;" style="text;html=1;align=center;verticalAlign=middle;whiteSpace=wrap;rounded=0;fontSize=16;" parent="1" vertex="1">
          <mxGeometry x="410" y="200" width="370" height="30" as="geometry" />
        </mxCell>
        <mxCell id="0jMOX2zm2aL8xRkPfPqk-7" style="edgeStyle=orthogonalEdgeStyle;rounded=0;orthogonalLoop=1;jettySize=auto;html=1;exitX=0.5;exitY=1;exitDx=0;exitDy=0;" parent="1" source="0jMOX2zm2aL8xRkPfPqk-6" target="0jMOX2zm2aL8xRkPfPqk-6" edge="1">
          <mxGeometry relative="1" as="geometry" />
        </mxCell>
        <mxCell id="W7cNQvz6aFRDoooGzYBr-1" value="&lt;b&gt;&lt;font style=&quot;font-size: 15px;&quot;&gt;DIAGRAMMA DI CLASSE&lt;/font&gt;&lt;/b&gt;" style="text;html=1;align=center;verticalAlign=middle;whiteSpace=wrap;rounded=0;" parent="1" vertex="1">
          <mxGeometry x="100" y="113" width="260" height="30" as="geometry" />
        </mxCell>
        <mxCell id="W7cNQvz6aFRDoooGzYBr-2" value="&lt;b&gt;&lt;font style=&quot;font-size: 15px;&quot;&gt;DIAGRAMMA DI OGGETTO&lt;/font&gt;&lt;/b&gt;" style="text;html=1;align=center;verticalAlign=middle;whiteSpace=wrap;rounded=0;" parent="1" vertex="1">
          <mxGeometry x="100" y="390" width="260" height="30" as="geometry" />
        </mxCell>
        <mxCell id="W7cNQvz6aFRDoooGzYBr-3" value="&lt;b&gt;Acqua : Bottiglia&lt;/b&gt;" style="rounded=0;whiteSpace=wrap;html=1;" parent="1" vertex="1">
          <mxGeometry x="100" y="470" width="260" height="20" as="geometry" />
        </mxCell>
        <mxCell id="W7cNQvz6aFRDoooGzYBr-4" value="-marca: string? = &quot;Santa Lucia&quot;&lt;div&gt;-materiale: string? = &quot;PET&quot;&lt;/div&gt;&lt;div&gt;-altezza: float= 12&lt;/div&gt;&lt;div&gt;-diametro: float= 15&lt;/div&gt;" style="rounded=0;whiteSpace=wrap;html=1;" parent="1" vertex="1">
          <mxGeometry x="100" y="490" width="260" height="80" as="geometry" />
        </mxCell>
        <mxCell id="W7cNQvz6aFRDoooGzYBr-6" value="" style="endArrow=classic;html=1;rounded=0;exitX=0;exitY=0.5;exitDx=0;exitDy=0;dashed=1;" parent="1" source="0jMOX2zm2aL8xRkPfPqk-3" edge="1">
          <mxGeometry width="50" height="50" relative="1" as="geometry">
            <mxPoint x="30" y="325" as="sourcePoint" />
            <mxPoint x="90" y="570" as="targetPoint" />
            <Array as="points">
              <mxPoint x="30" y="310" />
            </Array>
          </mxGeometry>
        </mxCell>
        <mxCell id="W7cNQvz6aFRDoooGzYBr-7" value="&amp;lt;&amp;lt;istance&amp;gt;&amp;gt;" style="text;html=1;align=center;verticalAlign=middle;whiteSpace=wrap;rounded=0;" parent="1" vertex="1">
          <mxGeometry x="60" y="380" width="60" height="30" as="geometry" />
        </mxCell>
        <mxCell id="W7cNQvz6aFRDoooGzYBr-8" value="" style="endArrow=classic;html=1;rounded=0;exitX=1;exitY=0.5;exitDx=0;exitDy=0;dashed=1;" parent="1" source="0jMOX2zm2aL8xRkPfPqk-3" edge="1">
          <mxGeometry width="50" height="50" relative="1" as="geometry">
            <mxPoint x="390" y="440" as="sourcePoint" />
            <mxPoint x="450" y="560" as="targetPoint" />
          </mxGeometry>
        </mxCell>
        <mxCell id="W7cNQvz6aFRDoooGzYBr-9" value="&lt;b&gt;CocaCola : Bottiglia&lt;/b&gt;" style="rounded=0;whiteSpace=wrap;html=1;" parent="1" vertex="1">
          <mxGeometry x="460" y="470" width="260" height="20" as="geometry" />
        </mxCell>
        <mxCell id="W7cNQvz6aFRDoooGzYBr-10" value="-marca: string? = &quot;Coca Cola&quot;&lt;div&gt;-materiale: string? = &quot;ALU&quot;&lt;/div&gt;&lt;div&gt;-altezza: float= 8&lt;/div&gt;&lt;div&gt;-diametro: float= 9&lt;/div&gt;" style="rounded=0;whiteSpace=wrap;html=1;" parent="1" vertex="1">
          <mxGeometry x="460" y="490" width="260" height="80" as="geometry" />
        </mxCell>
        <mxCell id="W7cNQvz6aFRDoooGzYBr-13" value="&amp;lt;&amp;lt;istance&amp;gt;&amp;gt;" style="text;html=1;align=center;verticalAlign=middle;whiteSpace=wrap;rounded=0;" parent="1" vertex="1">
          <mxGeometry x="400" y="380" width="60" height="30" as="geometry" />
        </mxCell>
        <mxCell id="W7cNQvz6aFRDoooGzYBr-23" value="" style="edgeStyle=orthogonalEdgeStyle;rounded=0;orthogonalLoop=1;jettySize=auto;html=1;" parent="1" source="W7cNQvz6aFRDoooGzYBr-16" target="W7cNQvz6aFRDoooGzYBr-22" edge="1">
          <mxGeometry relative="1" as="geometry" />
        </mxCell>
        <mxCell id="W7cNQvz6aFRDoooGzYBr-16" value="&lt;b&gt;Studente&lt;/b&gt;" style="rounded=0;whiteSpace=wrap;html=1;" parent="1" vertex="1">
          <mxGeometry x="90" y="960" width="260" height="20" as="geometry" />
        </mxCell>
        <mxCell id="W7cNQvz6aFRDoooGzYBr-17" value="&lt;b&gt;Studente&lt;/b&gt;" style="rounded=0;whiteSpace=wrap;html=1;" parent="1" vertex="1">
          <mxGeometry x="450" y="960" width="260" height="20" as="geometry" />
        </mxCell>
        <mxCell id="W7cNQvz6aFRDoooGzYBr-19" value="- nome: string?&lt;div&gt;- cognome: string?&lt;/div&gt;&lt;div&gt;- matricola: string?&lt;/div&gt;" style="rounded=0;whiteSpace=wrap;html=1;" parent="1" vertex="1">
          <mxGeometry x="90" y="980" width="260" height="90" as="geometry" />
        </mxCell>
        <mxCell id="W7cNQvz6aFRDoooGzYBr-20" value="- nome: string?&lt;div&gt;- cognome: string?&lt;/div&gt;&lt;div&gt;- dipartimento: string?&lt;/div&gt;" style="rounded=0;whiteSpace=wrap;html=1;" parent="1" vertex="1">
          <mxGeometry x="450" y="980" width="260" height="90" as="geometry" />
        </mxCell>
        <mxCell id="W7cNQvz6aFRDoooGzYBr-21" value="&lt;div&gt;+ Studente()&lt;/div&gt;&lt;div&gt;+ GET E SET&lt;/div&gt;&lt;div&gt;&lt;br&gt;&lt;/div&gt;" style="rounded=0;whiteSpace=wrap;html=1;" parent="1" vertex="1">
          <mxGeometry x="90" y="1080" width="260" height="90" as="geometry" />
        </mxCell>
        <mxCell id="W7cNQvz6aFRDoooGzYBr-22" value="&lt;b&gt;Studente&lt;/b&gt;" style="rounded=0;whiteSpace=wrap;html=1;" parent="1" vertex="1">
          <mxGeometry x="90" y="1060" width="260" height="20" as="geometry" />
        </mxCell>
        <mxCell id="W7cNQvz6aFRDoooGzYBr-24" value="&lt;b&gt;Persona&lt;/b&gt;" style="rounded=0;whiteSpace=wrap;html=1;" parent="1" vertex="1">
          <mxGeometry x="270" y="680" width="260" height="20" as="geometry" />
        </mxCell>
        <mxCell id="W7cNQvz6aFRDoooGzYBr-25" value="- nome: string?&lt;div&gt;- cognome: string?&lt;/div&gt;&lt;div&gt;&lt;br&gt;&lt;/div&gt;" style="rounded=0;whiteSpace=wrap;html=1;" parent="1" vertex="1">
          <mxGeometry x="270" y="700" width="260" height="80" as="geometry" />
        </mxCell>
        <mxCell id="W7cNQvz6aFRDoooGzYBr-28" value="&lt;div&gt;+ Persona()&lt;/div&gt;&lt;div&gt;+StampaDettaglio()&lt;/div&gt;" style="rounded=0;whiteSpace=wrap;html=1;" parent="1" vertex="1">
          <mxGeometry x="270" y="780" width="260" height="80" as="geometry" />
        </mxCell>
        <mxCell id="W7cNQvz6aFRDoooGzYBr-30" value="" style="endArrow=none;html=1;rounded=0;strokeWidth=12;" parent="1" edge="1">
          <mxGeometry width="50" height="50" relative="1" as="geometry">
            <mxPoint y="640" as="sourcePoint" />
            <mxPoint x="830" y="640" as="targetPoint" />
          </mxGeometry>
        </mxCell>
        <mxCell id="W7cNQvz6aFRDoooGzYBr-31" value="&lt;div&gt;+ Docente()&lt;/div&gt;&lt;div&gt;+ GET E SET&lt;/div&gt;&lt;div&gt;&lt;br&gt;&lt;/div&gt;" style="rounded=0;whiteSpace=wrap;html=1;" parent="1" vertex="1">
          <mxGeometry x="450" y="1070" width="260" height="90" as="geometry" />
        </mxCell>
        <mxCell id="W7cNQvz6aFRDoooGzYBr-32" value="&lt;font style=&quot;font-size: 15px;&quot;&gt;&lt;b&gt;SUPERCLASSE&lt;/b&gt;&lt;/font&gt;" style="text;html=1;align=center;verticalAlign=middle;resizable=0;points=[];autosize=1;strokeColor=none;fillColor=none;" parent="1" vertex="1">
          <mxGeometry x="125" y="675" width="140" height="30" as="geometry" />
        </mxCell>
      </root>
    </mxGraphModel>
  </diagram>
</mxfile>
